<svg viewBox="0 0 800 600" xmlns="http://www.w3.org/2000/svg">
  <defs>
    <style>
      .titan-silhouette { fill: #1a1a1a; }
      .world { fill: #4a4a4a; stroke: #2a2a2a; stroke-width: 2; }
      .continents { fill: #f0f0f0; }
    </style>
  </defs>
  
  <!-- Background -->
  <rect width="800" height="600" fill="#f8f9fa"/>
  
  <!-- Atlas silhouette -->
  <path class="titan-silhouette" d="M300 500 C280 480 270 450 280 420 L290 400 C300 380 320 360 340 350 L360 340 C380 330 400 320 420 310 L440 300 C460 290 480 280 500 270 L520 260 C540 250 560 240 580 230 L600 220 C620 210 640 200 660 190 L680 180 C700 170 720 160 740 150 L760 140 C780 130 800 120 800 120 L800 500 Z"/>
  
  <!-- World/Globe -->
  <circle class="world" cx="400" cy="150" r="80"/>
  
  <!-- Continents -->
  <path class="continents" d="M350 120 C370 110 390 115 400 125 C410 135 415 145 420 155 C425 165 430 175 440 180 C450 185 460 180 465 170 C470 160 465 150 460 140 C455 130 450 120 445 110 C440 100 435 90 430 85 C425 80 420 85 415 90 C410 95 405 100 400 105 C395 110 390 115 385 120 C380 125 375 130 370 125 C365 120 360 115 355 120 C350 125 345 120 350 120 Z"/>
  
  <path class="continents" d="M420 130 C430 125 440 130 445 140 C450 150 445 160 440 165 C435 170 430 165 425 160 C420 155 415 150 415 140 C415 135 417.5 132.5 420 130 Z"/>
  
  <!-- Atlas figure holding up the world -->
  <path class="titan-silhouette" d="M320 350 C325 340 335 335 345 340 C355 345 365 355 375 365 C385 375 395 385 400 395 C405 405 410 415 415 425 C420 435 425 445 430 455 C435 465 440 475 445 485 C450 495 455 505 460 515 C465 525 470 535 475 545 C480 555 485 565 490 575 C495 585 500 595 500 600 L320 600 Z"/>
  
  <!-- Arms reaching up -->
  <path class="titan-silhouette" d="M375 365 C370 355 375 345 385 340 C395 335 405 340 410 350 C415 360 410 370 405 375 C400 380 395 375 390 370 C385 365 380 360 375 365 Z"/>
  
  <path class="titan-silhouette" d="M425 365 C430 355 425 345 415 340 C405 335 395 340 390 350 C385 360 390 370 395 375 C400 380 405 375 410 370 C415 365 420 360 425 365 Z"/>
</svg> 